<?xml version="1.0" encoding="UTF-8"?>
<svg width="1536px" height="1536px" viewBox="0 0 1536 1536" version="1.1" xmlns="http://www.w3.org/2000/svg" xmlns:xlink="http://www.w3.org/1999/xlink">
    <title>编组 4</title>
    <g id="页面-1" stroke="none" stroke-width="1" fill="none" fill-rule="evenodd">
        <g id="编组-4">
            <g id="tqx-dark" fill="#000000" fill-rule="nonzero">
                <path d="M1392,0 L144,0 C64.8,0 0,64.8 0,144 L0,1392 C0,1471.2 64.8,1536 144,1536 L1392,1536 C1471.2,1536 1536,1471.2 1536,1392 L1536,144 C1536,64.8 1471.2,0 1392,0 M468.864,998.976 L302.976,998.976 C294.245216,999.33071 285.996822,994.968227 281.376,987.552 C276.864,980.352 276.864,971.328 281.376,962.016 L457.824,650.592 C458.112,650.304 458.112,650.016 457.824,649.728 L345.6,455.328 C341.088,446.016 340.224,436.992 344.736,429.792 C348.96,422.88 357.312,419.328 367.488,419.328 L533.664,419.328 C559.2,419.328 571.776,435.84 579.84,450.528 C579.84,450.528 693.216,648.576 694.176,649.728 C687.552,661.728 514.752,966.816 514.752,966.816 C505.728,982.368 493.728,998.88 468.864,998.88 L468.864,998.976 Z M1254.624,228.288 L886.848,878.688 C886.592,879.029333 886.592,879.498667 886.848,879.84 L1121.184,1307.616 C1125.696,1316.928 1125.984,1326.24 1121.472,1333.44 C1117.248,1340.352 1109.472,1343.904 1099.296,1343.904 L933.408,1343.904 C907.872,1343.904 895.296,1327.104 886.944,1312.416 L650.88,879.264 L1020.48,223.776 C1029.504,207.84 1040.256,192.288 1064.928,192.288 L1233.216,192.288 C1243.104,192.288 1251.264,196.224 1255.392,202.752 C1259.616,209.664 1259.616,218.976 1254.816,228.288 L1254.624,228.288 Z" id="形状"></path>
            </g>
            <rect id="矩形" fill="#FFFFFF" x="133" y="175" width="635" height="212" rx="37"></rect>
        </g>
    </g>
</svg>